<?xml version="1.0" encoding="UTF-8"?>
<svg id="_レイヤー_1" data-name="レイヤー 1" xmlns="http://www.w3.org/2000/svg" viewBox="0 0 3400 3400">
  <defs>
    <style>
      .cls-1 {
        fill: #f2e9c4;
      }

      .cls-2 {
        fill: #3a3836;
      }
    </style>
  </defs>
  <rect class="cls-1" x="-769.24" y="-217.95" width="4854.88" height="3799.07"/>
  <path class="cls-2" d="M1217.83,2364.24c-62.39,3.03-125.85.22-188.61-8.35-30.76-4.22-61.48-9.93-91.28-16.95-98.22-23.15-183.41-60.22-246.39-107.19-7.17-5.35-14.22-10.8-20.87-16.45-20.27-17.22-40.01-36.26-58.66-56.59-189.98-206.88-235.03-525.57-112.09-793.02,76.04-165.42,216.24-299.18,384.67-367,1.39-.57,2.83-.87,4.28-.94,3.58-.17,7.15,1.12,9.83,3.7,3.76,3.63,5.08,9.14,3.37,14.1-4.67,13.54-8.98,27.16-12.83,40.48-20.35,70.37-31.48,143.03-33.08,215.98-.08,3.99-1.93,7.72-5.03,10.2-61.42,49.02-110.78,111.68-142.71,181.16-57.23,124.45-62.58,268.29-14.71,394.62,4.2,11.07,8.75,21.91,13.55,32.21,9.66,20.71,20.85,40.71,33.24,59.41,22.28,33.56,48.58,63.32,78.17,88.46,26.21,22.29,65.13,42.62,112.56,58.76,24.21,8.25,50.24,15.28,77.38,20.91,63.4,13.15,131.52,18.43,197,15.25,0,0,5.3-.27,5.33-.27,7.21-.35,13.39,5.17,13.91,12.44,3.78,53.45,12.86,106.83,27,158.68,3.62,13.28,7.72,26.9,12.19,40.51,1.28,3.9.71,8.17-1.53,11.59-2.25,3.42-5.92,5.64-9.99,5.96-11.74.99-23.35,1.76-34.73,2.31Z"/>
  <path class="cls-2" d="M992.5,1519.32c-1.66.08-3.35-.15-4.97-.72-4.02-1.4-7.15-4.66-8.39-8.78-31.31-103.58-50.72-207.67-41.86-316.12,10.15-124.15,48.16-250.05,116.91-354.38,95.36-144.82,238.18-251.87,402.14-301.43l2.54-.77c56.05-16.7,113.92-26.59,172.05-29.41,119.5-5.8,240.06,18.58,348.67,70.49,37.22,17.79,76.21,35.17,111.85,57.04,26.41,16.21,51.01,35.22,74.23,55.69,9.47,8.35,19.41,16.49,27.24,26.49,3.02,3.85,8.92,10.58,8.11,16.03-1.45,9.73-15.64,9.14-23.62,10.04-59.36,6.67-118.07,20.91-174.16,41.41-28.45,10.4-56.02,23.39-83.79,35.63-3.49,1.54-7.12,3.11-10.94,3.01-3.62-.1-7.43-1.02-10.29-3.26-67.67-53.01-164.47-85.46-256.21-80.96-40.15,1.95-80.08,8.81-118.69,20.38-228.7,68.55-364.76,287.11-358.8,520.58,1.44,56.44,17.28,89.31,23.47,118.38,1.33,6.17-1.81,12.43-7.52,15.03-8.39,3.8-16.19,7.47-24.01,11.2l-5.84,2.84c-8.96,4.38-17.89,8.89-26.78,13.53l-6.77,3.53c-8.76,4.65-17.51,9.43-26.22,14.35l-6.53,3.66c-9.21,5.28-18.37,10.72-27.49,16.33l-4.64,2.82c-18.06,11.2-35.83,22.98-52.7,34.94-2.08,1.48-4.53,2.3-7,2.42Z"/>
  <path class="cls-2" d="M1236.67,1893.79c-3.07.15-6.16-.79-8.68-2.71-10.69-8.18-21.22-16.7-31.3-25.34-3.1-2.65-4.84-6.59-4.69-10.69.14-4.11,2.12-7.91,5.41-10.34,15.54-11.51,32.02-22.58,48.98-32.89,1.93-1.18,4.07-1.81,6.22-1.91,3.19-.15,6.41.86,9,2.97,4.34,3.55,6.03,9.46,4.21,14.79-6.4,18.74-12.1,37.64-16.96,56.17-1.13,4.31-4.33,7.78-8.52,9.23-1.2.43-2.44.66-3.68.72Z"/>
  <path class="cls-2" d="M2266.51,2310.59c-36.58,1.77-75.02.45-114.26-3.93-27.42-3.06-55.03-7.79-82.1-14.05-53.17-12.3-104.51-30.22-152.58-53.28l-302.44-145.1c-4.71-2.25-7.67-7.07-7.59-12.33.97-58.03,14.24-116.48,38.41-169.06l17.11-37.24c1.49-3.24,4.2-5.76,7.53-6.97,1.26-.45,2.56-.71,3.87-.78,2.16-.11,4.36.33,6.35,1.28l335.28,160.84c48.54,23.29,100.07,38.55,153.16,45.36,28.97,3.74,58.01,4.94,86.32,3.57,49.81-2.43,99.11-12.41,146.55-29.65,27.34-9.95,54.05-22.36,79.37-36.89,1.83-1.06,3.87-1.64,5.93-1.74,1.89-.09,3.82.22,5.62.96,3.78,1.55,6.63,4.74,7.79,8.67,22.15,76.27,22.6,156.77,1.31,232.82-1.03,3.65-3.53,6.69-6.9,8.37-.37.17-1.52.73-1.89.88l-2.77,1.08c-3.25,1.27-6.77,2.66-10.34,3.96-69.24,25.18-141.15,39.73-213.73,43.25Z"/>
  <path class="cls-2" d="M1480.18,2563.65c-4.1.2-8.13-1.52-10.85-4.81-34.31-41.45-64.08-86.88-88.51-135.01-12.44-24.47-23.67-50.12-33.42-76.24-21.92-58.64-36.35-119.46-42.91-180.78-1.42-13.13-2.44-27.02-3.23-43.71-1.05-21.95-1.23-42.13-.51-61.65.16-4.78.5-9.59.82-14.39l.93-14.66c2.18-28.52,6.08-57.22,11.65-85.48,11.23-57.2,29.11-112.75,53.17-165.1l13.9-30.24c1.45-3.12,4.03-5.57,7.2-6.84,8.43-3.32,15.82-5.88,22.14-8.01,36.14-12.13,74.78-22.7,114.83-31.38,38.15-8.26,77.54-14.82,117.11-19.52.31-.03.62-.06.92-.07,4.46-.22,8.77,1.84,11.4,5.53,2.83,3.94,3.33,9.1,1.3,13.5l-80.28,174.7c-25.05,54.52-39.99,112.58-44.41,172.59-2.24,30.2-1.8,60.45,1.32,89.91,10.88,103,54.24,202.22,122.11,279.37,4.23,4.81,4.48,11.98.59,17.07-42.97,56.31-100.49,98.73-166.35,122.67-1.79.65-3.58,1.27-5.39,1.89-1.15.38-2.35.6-3.53.66Z"/>
  <path class="cls-2" d="M1397.92,2892.37c-109,5.29-219.46-17.27-319.44-65.25-184.74-88.63-323.09-263.08-370.09-466.66-1.18-5.08.68-10.39,4.76-13.6,2.2-1.73,4.85-2.69,7.53-2.82,2.28-.11,4.6.37,6.71,1.47,69.83,36.21,153.85,64.02,242.96,80.44,3.84.7,7.19,3.09,9.14,6.5,46.6,81.59,114.9,145.67,197.52,185.32,65.65,31.51,138.22,46.32,209.84,42.85,20.5-.99,41.2-3.49,61.53-7.43,22.99-4.46,45.56-10.69,67.07-18.52,6.89-2.5,13.71-5.19,20.44-8.02,72.34-30.4,135.56-79.87,182.84-143.03,16.07-21.46,30.39-44.61,42.56-68.79,2.52-5.01,4.69-9.34,6.74-13.72l49.71-108.17c1.49-3.24,4.2-5.76,7.53-6.97,1.26-.45,2.56-.71,3.87-.78,2.16-.1,4.35.33,6.35,1.29l47.75,22.91c44.67,21.42,91.53,38.94,139.31,52.04,3.78,1.04,6.91,3.7,8.56,7.28,1.66,3.59,1.66,7.72.02,11.3l-54.03,117.56c-4.1,8.9-8.45,17.62-12.86,26.29-12.28,24.03-26.18,47.69-41.32,70.31-45.57,68.14-102.23,126.61-168.42,173.82-23.87,17.03-48.83,32.51-74.15,46l-8.05,4.11c-26.3,13.54-52.81,25.21-78.75,34.65-63.37,23.06-129.19,36.39-195.64,39.61Z"/>
  <path class="cls-2" d="M2876.81,1906.32c-5.4-.45-9.97-4.16-11.59-9.37-1.56-5.04-3.15-10.03-4.81-14.97-.41-1.25-.63-2.53-.68-3.79l-8.2-22.59c-28.48-75.77-67.2-146.28-115.04-209.41-2.15-2.86-3.09-6.47-2.6-10.02,26.43-189.95-50.28-378.74-200.2-492.69-24.35-18.49-50.5-34.88-77.74-48.69-1.6-.81-2.96-1.9-4.06-3.18l-7.14-3.72-6.48-2.53c-63.75-25.45-130.32-36.68-197.96-33.4-18.85.91-37.93,3.01-56.73,6.24-26.13,4.48-52.08,11.2-77.15,19.99-1.2.43-2.45.67-3.72.73-.89.04-1.81,0-2.7-.14l-4.12-.65c-1.42,2.9-3.86,5.3-7.09,6.57-48.82,19.25-93.91,46.22-133.98,80.16-2.27,1.92-5.06,2.98-7.9,3.12-2.15.1-4.33-.31-6.35-1.29l-196.19-94.13c-3.8-1.82-6.54-5.37-7.33-9.54-.81-4.18.39-8.5,3.24-11.63,48.25-53.04,104.09-98.27,165.96-134.47,29.52-17.28,60.64-32.59,92.44-45.47l2.36-.95c7.96-3.22,14.81-5.97,21.76-8.49,66.88-24.33,136.39-38.4,206.58-41.81,22.18-1.08,44.56-1.09,66.51-.04,37.58,1.79,75.81,6.86,113.65,15.05,50.52,10.92,99.91,27.37,146.77,48.92,2.46,1.13,4.42,2.92,5.76,5.08l5.09,2.66c170.07,88.87,298.22,239.65,360.83,424.57,62.73,185.27,52.72,384.72-28.23,561.62l-2.74,5.98c-2.32,4.94-4.72,9.86-7.29,14.98-2.17,4.34-6.48,7.1-11.21,7.33-.57.03-1.16.02-1.74-.03Z"/>
  <path class="cls-2" d="M2146.05,2863.64c-99.48,4.83-197.6-11.72-291.63-49.18-4.36-1.73-7.48-5.64-8.24-10.28-.77-4.65.95-9.36,4.52-12.41,55.59-47.51,104.02-103.09,143.97-165.24,2.35-3.68,6.3-5.89,10.5-6.09,1.17-.06,2.35.04,3.54.31,41.86,9.44,84.46,13.19,126.61,11.14,47.32-2.3,94.2-11.78,139.3-28.19,122.11-44.42,219.7-134.92,274.79-254.83,4.08-8.82,8.08-18.44,12.61-30.28,12.86-33.55,22.1-68.54,27.47-104.05,13.13-86.57,3.3-175.73-28.44-257.82-10.16-26.3-22.49-51.7-36.62-75.48-28.97-48.79-65.63-91.7-108.98-127.54-4.68-3.89-6.19-10.47-3.64-16.02l62.34-135.62c6.35-13.78,12.33-27.89,17.79-41.92,1.68-4.29,3.23-8.62,4.76-12.96,1.39-3.93,4.52-7,8.47-8.26,1.11-.37,2.26-.57,3.4-.62,2.9-.14,5.81.69,8.25,2.4,48.92,34.44,93.55,75.19,132.63,121.11,21.73,25.52,41.76,52.64,59.55,80.58,12.92,20.3,25.07,41.68,36.11,63.53,33.99,67.33,57.47,139.15,69.77,213.5,6.26,37.81,9.63,75.92,10.02,113.26,1.14,108.58-21.21,213.78-66.43,312.66l-.55,1.21c-81.11,176.48-225,309.71-405.2,375.26-66.87,24.33-136.41,38.41-206.68,41.84h0Z"/>
  <path class="cls-2" d="M2196.35,1999.62c-50.93-4.34-100.4-17.89-147-40.26l-52.25-25.07c-6.58-3.15-9.42-11.08-6.36-17.75l204.58-445.09c11.47-24.95,20.75-50.84,27.57-76.97l.85-3.67c6.81-26.92,11.14-54.77,12.9-83.02,1.08-16.88,1.3-32.36.72-47.34-.74-38.29-6.76-75.96-17.89-112.26-1.19-3.87-.57-8.1,1.68-11.46,2.27-3.36,5.9-5.52,9.91-5.84,4.37-.37,8.75-.65,13.08-.86,53.65-2.6,106.53,5.68,157.2,24.64,1.44.55,2.77,1.32,3.92,2.3l8.52,4.06c13.27,6.32,27.83,14.42,42.09,23.41,3.34,2.11,5.58,5.59,6.13,9.52,2.6,18.79,4.22,37.45,4.98,57.07,2.1,53.2-2.1,107.19-12.49,160.5-5.35,27.34-12.28,54.32-20.61,80.21-8.57,26.64-18.67,52.68-30.02,77.38l-194.33,422.8c-2.09,4.56-6.52,7.5-11.41,7.74-.58.03-1.17.02-1.76-.03Z"/>
  <path class="cls-2" d="M2059.06,1564.94c-2.16.1-4.36-.33-6.35-1.29l-701.98-336.76c-27.29-13.09-63.29-25.51-93.27-33.32-3.41-.9-6.34-3.11-8.12-6.17-1.8-3.07-2.3-6.72-1.43-10.17,6.75-26.4,15.83-52.11,27-76.44,19.08-41.5,44.43-79.63,75.32-113.3,2.41-2.62,5.7-4.12,9.11-4.28,1.63-.08,3.29.14,4.91.69,27.04,9.24,60.27,21.77,85.01,33.65l693.58,332.71c5.67,2.71,8.68,9.05,7.22,15.21-2.82,11.97-6.08,23.36-9.97,34.8-1.18,3.54-2.47,7.03-3.75,10.51-2.7,7.23-5.42,13.95-8.31,20.63-.91,2.17-2.5,5.95-3.02,7.08l-54.55,118.71c-1.49,3.24-4.2,5.76-7.53,6.97-1.26.45-2.56.71-3.87.78Z"/>
  <path class="cls-2" d="M950.29,2019.69c-1.71.08-3.46-.16-5.16-.79-33.41-12.19-59.14-25.85-76.51-40.59-5.54-4.71-11.13-9.85-17.01-15.64l-4.48-4.59c-25.18-25.45-46.71-55.51-63.92-89.26-2.02-3.95-1.97-8.66.14-12.55,13.7-25.36,28.85-49.84,45.06-72.78l5.44-7.21c22.7-31.19,48.09-61.32,75.35-89.4,8.49-8.7,16.52-16.52,24.6-24.21l4.77-4.52,4.34-3.91c5.81-5.35,11.67-10.67,17.61-15.84,3.1-2.73,6.26-5.43,9.45-8.14,6.14-5.2,12.31-10.28,18.54-15.28l8.72-6.96,4.91-3.71c5.66-4.38,11.32-8.68,17.04-12.91l5.72-4.22c18.7-13.52,38.36-26.63,58.54-39.04l4.97-2.98c8.2-5,16.48-9.87,24.78-14.6l6.58-3.69c8.03-4.47,16.08-8.85,24.17-13.07l6.07-3.18c8.87-4.6,17.79-9.03,26.69-13.31l3.24-1.6c5.03-2.38,10.05-4.67,15.08-6.94l4.48-2.01c24.8-11.28,49.79-21.63,74.21-30.76l1.59-.6c10.02-3.72,20.06-7.3,30.07-10.73l2.04-.7c10.11-3.47,20.2-6.76,30.24-9.92,36.96-11.58,75.91-21.93,115.8-30.74,17.76-3.93,36.34-7.67,55.18-11.12.58-.11,1.15-.17,1.73-.2,2.15-.1,4.3.32,6.26,1.24l25.27,11.91,347.32,166.62c5.63,2.69,8.65,8.96,7.25,15.1-1.34,5.87-6.38,10.1-12.31,10.39-.23.01-9.02-.05-9.02-.05l-21.02.06-22.27.23-24.13.4-49.71,1.34-22.39.76-11.68.5c-6.44.31-13.59.72-21.25,1.21-39.56,2.59-101.74,8.7-173.14,23.04-33.63,6.76-66.85,14.86-98.72,24.07l-6.91,2.08c-30.96,9.18-61.07,19.58-89.56,30.92l-8.54,3.42c-74.43,30.45-140.49,68.64-196.25,113.45-20.81,16.72-40.73,34.96-59.24,54.2-14.76,15.33-28.92,31.77-42.1,48.86l-12.44,16.24-2.63,3.55c-.35,1.05-.85,2.06-1.49,2.98-19.18,27.51-35.82,56.52-49.45,86.21-.01.03-.58,1.26-.59,1.29-2.15,4.6-6.6,7.42-11.37,7.66Z"/>
</svg>